# xmcd
#
# Track frame offsets:
# 150
# 20218
# 37538
# 56788
# 74658
# 93298
# 110336
# 132449
# 147317
# 167312
# 186029
# 204035
#
# Disc length: 2969 seconds
#
#
# Revision: 0
# Processed by: cddbd v1.5.2PL0 Copyright (c) Steve Scherf et al.
# Submitted via: FreeRIP 2.51 
#
DISCID=a00b970c
DTITLE=Randy Rogers Band - Just A Matter Of Time
DYEAR=2006
DGENRE=Texas Country
TTITLE0=Better Off Wrong
TTITLE1=Kiss Me In The Dark
TTITLE2=One More Goodbye
TTITLE3=Just A Matter Of Time
TTITLE4=You Could've Left Me
TTITLE5=You Could Change My Mind
TTITLE6=Before I Believe It's True
TTITLE7=You Start Over Your Way
TTITLE8=If Anyone Asks
TTITLE9=You Don't Know Me
TTITLE10=If I Told You The Truth
TTITLE11=Whiskey's Got A Hold Of Me
EXTD=
EXTT0=
EXTT1=
EXTT2=
EXTT3=
EXTT4=
EXTT5=
EXTT6=
EXTT7=
EXTT8=
EXTT9=
EXTT10=
EXTT11=
PLAYORDER=
